  <svg display='none' xmlns="http://www.w3.org/2000/svg">
    <symbol id="lang-icon" viewBox="0 0 28 28">
      <g>
        <path d="M12 23.6666C10.4056 23.6666 8.89865 23.3601 7.47921 22.7473C6.05976 22.1344 4.82037 21.2983 3.76104 20.2389C2.70171 19.1796 1.8656 17.9402 1.25271 16.5208C0.639819 15.1013 0.333374 13.5944 0.333374 11.9999C0.333374 10.386 0.639819 8.87442 1.25271 7.46509C1.8656 6.05575 2.70171 4.82103 3.76104 3.76092C4.82037 2.70081 6.05976 1.8647 7.47921 1.25259C8.89865 0.640474 10.4056 0.33403 12 0.333252C13.6139 0.333252 15.1259 0.639697 16.536 1.25259C17.9461 1.86547 19.1805 2.70159 20.239 3.76092C21.2976 4.82025 22.1337 6.05497 22.7474 7.46509C23.361 8.8752 23.6675 10.3868 23.6667 11.9999C23.6667 13.5944 23.3603 15.1013 22.7474 16.5208C22.1345 17.9402 21.2984 19.18 20.239 20.2401C19.1797 21.3002 17.945 22.1363 16.5349 22.7484C15.1248 23.3605 13.6132 23.6666 12 23.6666ZM12 21.2749C12.5056 20.5749 12.9431 19.8458 13.3125 19.0874C13.682 18.3291 13.9834 17.5221 14.2167 16.6666H9.78337C10.0167 17.5221 10.3181 18.3291 10.6875 19.0874C11.057 19.8458 11.4945 20.5749 12 21.2749ZM8.96671 20.8083C8.61671 20.1666 8.31065 19.5004 8.04854 18.8098C7.78643 18.1191 7.56749 17.4047 7.39171 16.6666H3.95004C4.51393 17.6388 5.21899 18.4846 6.06521 19.2041C6.91143 19.9235 7.8786 20.4583 8.96671 20.8083ZM15.0334 20.8083C16.1223 20.4583 17.0898 19.9235 17.936 19.2041C18.7823 18.4846 19.4869 17.6388 20.05 16.6666H16.6084C16.4334 17.4055 16.2148 18.1203 15.9527 18.8109C15.6906 19.5016 15.3842 20.1674 15.0334 20.8083ZM2.95837 14.3333H6.92504C6.86671 13.9444 6.82315 13.5605 6.79437 13.1818C6.7656 12.803 6.75082 12.409 6.75004 11.9999C6.74926 11.5908 6.76404 11.1973 6.79437 10.8193C6.82471 10.4413 6.86826 10.057 6.92504 9.66659H2.95837C2.86115 10.0555 2.78843 10.4397 2.74021 10.8193C2.69199 11.1988 2.66748 11.5924 2.66671 11.9999C2.66593 12.4075 2.69043 12.8014 2.74021 13.1818C2.78999 13.5621 2.86271 13.9459 2.95837 14.3333ZM9.25837 14.3333H14.7417C14.8 13.9444 14.844 13.5605 14.8735 13.1818C14.9031 12.803 14.9175 12.409 14.9167 11.9999C14.9159 11.5908 14.9012 11.1973 14.8724 10.8193C14.8436 10.4413 14.8 10.057 14.7417 9.66659H9.25837C9.20004 10.0555 9.15648 10.4397 9.12771 10.8193C9.09893 11.1988 9.08415 11.5924 9.08337 11.9999C9.0826 12.4075 9.09737 12.8014 9.12771 13.1818C9.15804 13.5621 9.2016 13.9459 9.25837 14.3333ZM17.075 14.3333H21.0417C21.1389 13.9444 21.212 13.5605 21.261 13.1818C21.31 12.803 21.3342 12.409 21.3334 11.9999C21.3326 11.5908 21.3085 11.1973 21.261 10.8193C21.2136 10.4413 21.1405 10.057 21.0417 9.66659H17.075C17.1334 10.0555 17.1773 10.4397 17.2069 10.8193C17.2364 11.1988 17.2508 11.5924 17.25 11.9999C17.2493 12.4075 17.2345 12.8014 17.2057 13.1818C17.1769 13.5621 17.1334 13.9459 17.075 14.3333ZM16.6084 7.33325H20.05C19.4862 6.36103 18.7815 5.5152 17.936 4.79575C17.0906 4.07631 16.123 3.54159 15.0334 3.19159C15.3834 3.83325 15.6898 4.49942 15.9527 5.19009C16.2156 5.88075 16.4342 6.59514 16.6084 7.33325ZM9.78337 7.33325H14.2167C13.9834 6.4777 13.682 5.67075 13.3125 4.91242C12.9431 4.15409 12.5056 3.42492 12 2.72492C11.4945 3.42492 11.057 4.15409 10.6875 4.91242C10.3181 5.67075 10.0167 6.4777 9.78337 7.33325ZM3.95004 7.33325H7.39171C7.56671 6.59436 7.78565 5.87959 8.04854 5.18892C8.31143 4.49825 8.61748 3.83247 8.96671 3.19159C7.87782 3.54159 6.91026 4.07631 6.06404 4.79575C5.21782 5.5152 4.51315 6.36103 3.95004 7.33325Z"/>
      </g>
    </symbol>
  </svg>